<svg class="svg-icon" style="width: 1em; height: 1em;vertical-align: middle;fill: currentColor;overflow: hidden;" viewBox="0 0 1024 1024" version="1.1" xmlns="http://www.w3.org/2000/svg"><path d="M225.904 424.896C177.876 424.896 138.8 463.972 138.8 512s39.076 87.102 87.104 87.102 87.102-39.074 87.102-87.102-39.074-87.104-87.102-87.104z m0 159.762c-40.066 0-72.66-32.594-72.66-72.658 0-40.066 32.594-72.66 72.66-72.66 40.064 0 72.658 32.594 72.658 72.66 0 40.064-32.594 72.658-72.658 72.658z" fill="#4A555F" /><path d="M225.904 456.194c-30.772 0-55.808 25.034-55.808 55.806s25.036 55.808 55.808 55.808 55.806-25.036 55.806-55.808-25.034-55.806-55.806-55.806z" fill="#DFDFDF" /><path d="M784.79 295.28c-48.028 0-87.104 39.074-87.104 87.102s39.076 87.102 87.104 87.102 87.102-39.074 87.102-87.102-39.074-87.102-87.102-87.102z m0 159.76c-40.066 0-72.66-32.594-72.66-72.658s32.594-72.658 72.66-72.658c40.064 0 72.658 32.594 72.658 72.658s-32.596 72.658-72.658 72.658z" fill="#4A555F" /><path d="M784.788 326.576c-30.772 0-55.808 25.036-55.808 55.808s25.036 55.806 55.808 55.806 55.806-25.034 55.806-55.806-25.034-55.808-55.806-55.808z" fill="#DFDFDF" /><path d="M784.79 554.516c-48.028 0-87.104 39.074-87.104 87.102 0 48.028 39.076 87.104 87.104 87.104s87.102-39.076 87.102-87.104c-0.002-48.028-39.074-87.102-87.102-87.102z m0 159.762c-40.066 0-72.66-32.594-72.66-72.66 0-40.064 32.594-72.658 72.66-72.658 40.064 0 72.658 32.594 72.658 72.658-0.002 40.066-32.596 72.66-72.658 72.66z" fill="#4A555F" /><path d="M784.788 585.812c-30.772 0-55.808 25.036-55.808 55.808s25.036 55.806 55.808 55.806 55.806-25.034 55.806-55.806-25.034-55.808-55.806-55.808z" fill="#DFDFDF" /><path d="M510.266 36.04c-48.028 0-87.102 39.076-87.102 87.104s39.074 87.102 87.102 87.102c48.028 0 87.104-39.074 87.104-87.102 0-48.028-39.076-87.104-87.104-87.104z m0 159.762c-40.064 0-72.658-32.594-72.658-72.658 0-40.066 32.594-72.66 72.658-72.66 40.066 0 72.66 32.594 72.66 72.66 0 40.064-32.594 72.658-72.66 72.658z" fill="#4A555F" /><path d="M510.266 67.338c-30.772 0-55.806 25.034-55.806 55.806s25.034 55.808 55.806 55.808 55.808-25.036 55.808-55.808-25.036-55.806-55.808-55.806z" fill="#F58E6F" /><path d="M510.266 295.28c-48.028 0-87.102 39.074-87.102 87.102s39.074 87.102 87.102 87.102c48.028 0 87.104-39.074 87.104-87.102s-39.076-87.102-87.104-87.102z m0 159.76c-40.064 0-72.658-32.594-72.658-72.658s32.594-72.658 72.658-72.658c40.066 0 72.66 32.594 72.66 72.658s-32.594 72.658-72.66 72.658z" fill="#4A555F" /><path d="M510.266 326.576c-30.772 0-55.806 25.036-55.806 55.808s25.034 55.806 55.806 55.806 55.808-25.034 55.808-55.806-25.036-55.808-55.808-55.808z" fill="#F58E6F" /><path d="M510.266 554.516c-48.028 0-87.102 39.074-87.102 87.102 0 48.028 39.074 87.104 87.102 87.104 48.028 0 87.104-39.076 87.104-87.104s-39.076-87.102-87.104-87.102z m0 159.762c-40.064 0-72.658-32.594-72.658-72.66 0-40.064 32.594-72.658 72.658-72.658 40.066 0 72.66 32.594 72.66 72.658 0 40.066-32.594 72.66-72.66 72.66z" fill="#4A555F" /><path d="M510.266 585.812c-30.772 0-55.806 25.036-55.806 55.808s25.034 55.806 55.806 55.806 55.808-25.034 55.808-55.806-25.036-55.808-55.808-55.808z" fill="#F58E6F" /><path d="M510.266 813.754c-48.028 0-87.102 39.076-87.102 87.104s39.074 87.102 87.102 87.102c48.028 0 87.104-39.074 87.104-87.102s-39.076-87.104-87.104-87.104z m0 159.76c-40.064 0-72.658-32.594-72.658-72.658 0-40.066 32.594-72.66 72.658-72.66 40.066 0 72.66 32.594 72.66 72.66 0 40.064-32.594 72.658-72.66 72.658z" fill="#4A555F" /><path d="M510.266 845.05c-30.772 0-55.806 25.034-55.806 55.806s25.034 55.808 55.806 55.808 55.808-25.036 55.808-55.808-25.036-55.806-55.808-55.806z" fill="#F58E6F" /><path d="M291.906 466.5l134.98-74.902 7.01 12.628-134.982 74.9zM291.918 558.406l7.006-12.628 134.996 74.884-7.006 12.63zM0 504.78h108.988v14.444H0z" fill="#4A555F" /><path d="M75.014 463.83l-10.698 9.71 34.834 38.372-34.742 36.886 10.514 9.904 43.902-46.612zM905.176 375.942h108.988v14.444h-108.988z" fill="#4A555F" /><path d="M980.19 334.994l-10.698 9.708 34.836 38.374-34.744 36.886 10.514 9.902L1024 383.254zM905.176 635.18h108.988v14.444h-108.988z" fill="#4A555F" /><path d="M980.19 594.232l-10.698 9.71 34.836 38.37-34.744 36.89 10.514 9.902L1024 642.49zM567.638 586.778l154.396-154.396 10.212 10.212-154.396 154.396z" fill="#4A555F" /><path d="M565.16 440.104l10.214-10.212 154.212 154.212-10.212 10.212zM241.506 430.546L444.888 171.768l11.354 8.924-203.38 258.78zM241.498 592.378l11.354-8.924 203.38 258.778-11.354 8.924zM567.654 177.994l10.21-10.22 154.378 154.248-10.21 10.218zM567.634 846.534l154.4-154.226 10.208 10.22-154.4 154.224z" fill="#4A555F" /></svg>